<?xml version="1.0" standalone="no"?><!DOCTYPE svg PUBLIC "-//W3C//DTD SVG 1.1//EN" "http://www.w3.org/Graphics/SVG/1.1/DTD/svg11.dtd"><svg t="1771244675837" class="icon" viewBox="0 0 1024 1024" version="1.1" xmlns="http://www.w3.org/2000/svg" p-id="9610" xmlns:xlink="http://www.w3.org/1999/xlink" width="200" height="200"><path d="M332 806.152c111.642 0 470.25 0.6 470.25 0.6V585.868H590.792" fill="#4988FD" p-id="9611"></path><path d="M832.25 836.802l-30.05-0.05c-3.586-0.006-359.86-0.6-470.2-0.6v-60c91.422 0 351.532 0.406 440.25 0.55v-160.836h-181.458v-60h241.458v280.936z" fill="#4988FD" p-id="9612"></path><path d="M654 556h60v280h-60z" fill="#FFFFFF" p-id="9613"></path><path d="M450.538 420.87c66.562-66.562 183.008-182.966 183.008-182.966l155.702 155.7S429.572 753.48 404.004 779.05" fill="#DFECFD" p-id="9614"></path><path d="M425.216 800.262l-42.426-42.426c21.8-21.8 286.508-286.654 364.038-364.226l-113.286-113.284a1929590.576 1929590.576 0 0 0-161.792 161.756l-42.426-42.426c66.562-66.564 183.012-182.97 183.012-182.97l21.212-21.206 198.118 198.118-21.202 21.212c0.002 0-359.678 359.884-385.248 385.452z" fill="#DFECFD" p-id="9615"></path><path d="M549.986 279.144l197.986 197.986-42.426 42.426-197.986-197.986z" fill="#FFFFFF" p-id="9616"></path><path d="M192 696V196h280v500c0 77.32-62.68 140-140 140s-140-62.68-140-140z" fill="#4988FD" p-id="9617"></path><path d="M192 314h280v60H192z" fill="#FFFFFF" p-id="9618"></path><path d="M332 696m-36 0a36 36 0 1 0 72 0 36 36 0 1 0-72 0Z" fill="#DFECFD" p-id="9619"></path></svg>