<?xml version="1.0" standalone="no"?><!DOCTYPE svg PUBLIC "-//W3C//DTD SVG 1.1//EN" "http://www.w3.org/Graphics/SVG/1.1/DTD/svg11.dtd"><svg t="1771422205006" class="icon" viewBox="0 0 1024 1024" version="1.1" xmlns="http://www.w3.org/2000/svg" p-id="13278" xmlns:xlink="http://www.w3.org/1999/xlink" width="200" height="200"><path d="M512 61.44a40.96 40.96 0 0 1 40.96 40.96v122.88a40.96 40.96 0 1 1-81.92 0V102.4a40.96 40.96 0 0 1 40.96-40.96z" fill="#000000" p-id="13279"></path><path d="M737.28 121.8048a40.96 40.96 0 0 1 15.0016 55.9616l-61.44 106.4448a41.0624 41.0624 0 0 1-68.1472 4.608 40.96 40.96 0 0 1-2.816-45.568l61.44-106.496A40.96 40.96 0 0 1 737.28 121.856z" fill="#191919" p-id="13280"></path><path d="M902.1952 286.72a40.96 40.96 0 0 1-15.0016 55.9616l-106.3936 61.44a40.96 40.96 0 0 1-40.96-70.9632l106.3936-61.44a40.96 40.96 0 0 1 55.9616 15.0016z" fill="#333333" p-id="13281"></path><path d="M962.56 512a40.96 40.96 0 0 1-40.96 40.96h-122.88a40.96 40.96 0 0 1 0-81.92H921.6a40.96 40.96 0 0 1 40.96 40.96z" fill="#4C4C4C" p-id="13282"></path><path d="M902.1952 737.28a40.96 40.96 0 0 1-55.9616 15.0016l-106.3936-61.44a41.0112 41.0112 0 0 1 9.728-75.264 40.96 40.96 0 0 1 31.232 4.3008l106.3936 61.44a40.96 40.96 0 0 1 15.0016 55.9616z" fill="#666666" p-id="13283"></path><path d="M737.28 902.1952a40.96 40.96 0 0 1-55.9616-15.0016l-61.44-106.3936a40.96 40.96 0 0 1 70.9632-40.96l61.44 106.3936a40.96 40.96 0 0 1-15.0016 55.9616z" fill="#7F7F7F" p-id="13284"></path><path d="M512 962.56a40.96 40.96 0 0 1-40.96-40.96v-122.88a40.96 40.96 0 0 1 81.92 0V921.6a40.96 40.96 0 0 1-40.96 40.96z" fill="#999999" p-id="13285"></path><path d="M286.72 902.1952a40.96 40.96 0 0 1-15.0016-55.9616l61.44-106.3936a40.96 40.96 0 1 1 70.9632 40.96l-61.44 106.3936a40.96 40.96 0 0 1-55.9616 15.0016z" fill="#ACACAC" p-id="13286"></path><path d="M121.8048 737.28a40.96 40.96 0 0 1 15.0016-55.9616l106.4448-61.44a40.96 40.96 0 0 1 40.96 70.9632l-106.496 61.44A40.96 40.96 0 0 1 121.856 737.28z" fill="#BFBFBF" p-id="13287"></path><path d="M61.44 512a40.96 40.96 0 0 1 40.96-40.96h122.88a40.96 40.96 0 0 1 0 81.92H102.4a40.96 40.96 0 0 1-40.96-40.96z" fill="#CCCCCC" p-id="13288"></path><path d="M121.8048 286.72a40.96 40.96 0 0 1 55.9616-15.0016l106.4448 61.44a40.96 40.96 0 1 1-40.96 70.9632l-106.496-61.44A40.96 40.96 0 0 1 121.856 286.72z" fill="#E5E5E5" p-id="13289"></path><path d="M286.72 121.8048a40.96 40.96 0 0 1 55.9616 15.0016l61.44 106.4448a40.96 40.96 0 0 1-70.9632 40.96l-61.44-106.496A40.96 40.96 0 0 1 286.72 121.856z" fill="#F2F2F2" p-id="13290"></path></svg>