<?xml version="1.0" standalone="no"?><!DOCTYPE svg PUBLIC "-//W3C//DTD SVG 1.1//EN" "http://www.w3.org/Graphics/SVG/1.1/DTD/svg11.dtd"><svg t="1771251398943" class="icon" viewBox="0 0 1024 1024" version="1.1" xmlns="http://www.w3.org/2000/svg" p-id="9607" xmlns:xlink="http://www.w3.org/1999/xlink" width="200" height="200"><path d="M512 128a32 32 0 0 1 32 32v704a32 32 0 1 1-64 0v-704A32 32 0 0 1 512 128zM320 256a32 32 0 0 1 32 32v448a32 32 0 1 1-64 0v-448A32 32 0 0 1 320 256z m384 0a32 32 0 0 1 32 32v448a32 32 0 1 1-64 0v-448A32 32 0 0 1 704 256z m192 128a32 32 0 0 1 32 32v192a32 32 0 1 1-64 0v-192A32 32 0 0 1 896 384zM128 384a32 32 0 0 1 32 32v192a32 32 0 0 1-64 0v-192A32 32 0 0 1 128 384z" p-id="9608"></path></svg>