<?xml version="1.0" standalone="no"?><!DOCTYPE svg PUBLIC "-//W3C//DTD SVG 1.1//EN" "http://www.w3.org/Graphics/SVG/1.1/DTD/svg11.dtd"><svg t="1771479625795" class="icon" viewBox="0 0 1163 1024" version="1.1" xmlns="http://www.w3.org/2000/svg" p-id="20094" xmlns:xlink="http://www.w3.org/1999/xlink" width="227.1484375" height="200"><path d="M69.818182 349.090909a69.818182 69.818182 0 0 1 69.818182 69.818182v186.181818a69.818182 69.818182 0 0 1-139.636364 0v-186.181818a69.818182 69.818182 0 0 1 69.818182-69.818182z m1024 0a69.818182 69.818182 0 0 1 69.818182 69.818182v186.181818a69.818182 69.818182 0 0 1-139.636364 0v-186.181818a69.818182 69.818182 0 0 1 69.818182-69.818182zM325.818182 186.181818a69.818182 69.818182 0 0 1 69.818182 69.818182v512a69.818182 69.818182 0 0 1-139.636364 0V256a69.818182 69.818182 0 0 1 69.818182-69.818182z m256-186.181818a69.818182 69.818182 0 0 1 69.818182 69.818182v884.363636a69.818182 69.818182 0 0 1-139.636364 0V69.818182a69.818182 69.818182 0 0 1 69.818182-69.818182z m256 186.181818a69.818182 69.818182 0 0 1 69.818182 69.818182v535.272727a69.818182 69.818182 0 0 1-139.636364 0V256a69.818182 69.818182 0 0 1 69.818182-69.818182z" fill="#ef7428" p-id="20095"></path></svg>